<svg width="107" height="70" viewBox="0 0 107 70" fill="none" xmlns="http://www.w3.org/2000/svg">
<path d="M1.11345 57.3282C5.23455 60.4289 8.48953 64.1058 10.8401 68.7044C11.2123 69.4314 12.5279 69.5185 12.8625 68.6974C12.9788 68.421 13.0726 68.1385 13.1848 67.8549C13.5319 67.5498 13.7659 67.0818 13.6944 66.6283C13.6892 66.6028 13.6911 66.5731 13.6859 66.5476C15.0149 62.9832 16.0156 59.361 16.6559 55.5758C16.8241 54.5654 15.4812 53.4094 14.6795 54.4431C12.8047 56.848 11.6828 59.4365 11.3068 62.2128C9.96358 58.2219 10.5515 53.6868 12.7618 49.9846C15.6337 45.187 20.5646 43.3296 25.9488 43.6745C33.6086 44.1708 40.6061 48.0844 48.2583 48.6993C49.7867 48.8254 51.2703 48.7585 52.7113 48.5354C58.1682 53.0435 65.2511 55.2429 72.266 56.1877C82.0767 57.5257 91.4696 57.9918 98.4754 49.9892C111.976 34.5833 109.293 9.61728 90.1141 0.292399C89.4945 -0.00632064 88.9548 0.90461 89.5797 1.22886C106.338 10.0198 109.398 32.095 98.4013 46.6641C95.5697 50.411 92.046 53.6346 87.2773 54.5041C82.2278 55.431 76.2692 54.6185 71.2375 53.8131C65.7436 52.9321 60.0759 51.1239 55.5218 47.8831C60.4836 46.2933 64.6832 42.708 67.6561 38.1184C71.4137 32.3336 72.6213 23.9778 66.3474 19.3895C60.5329 15.1354 52.0552 16.6335 47.7953 22.2896C42.7114 29.0399 43.9603 38.4702 49.0218 44.8145C49.4092 45.3043 49.817 45.7634 50.2278 46.2113C47.8776 46.2933 45.4041 45.9803 42.788 45.3215C37.0545 43.8938 31.4486 41.5172 25.4751 41.2556C14.2905 40.7678 6.49836 51.1653 8.52176 61.0142C6.71054 58.8822 4.62242 56.9958 2.20447 55.3949C0.985752 54.5858 -0.0144215 56.4952 1.1022 57.3252L1.11345 57.3282ZM48.7996 40.376C44.4837 32.3074 47.7591 19.228 58.5535 19.3036C63.5572 19.3355 68.1801 22.6792 68.4508 27.9268C68.6793 32.4092 66.16 36.7464 63.2248 39.9347C60.1096 43.3221 56.7515 45.1848 53.0807 45.8961C51.3957 44.3287 49.9353 42.5079 48.7996 40.376Z" fill="white"/>
</svg>
