<svg width="88" height="76" viewBox="0 0 88 76" fill="none" xmlns="http://www.w3.org/2000/svg">
<path d="M56.5497 39.3725C57.5413 39.3813 58.3129 39.0981 58.8493 40.1671C61.037 44.538 61.9802 49.1542 61.8338 54.0175C61.7568 56.5685 59.1155 58.0832 56.9765 56.7788C56.1541 56.2776 55.3397 55.731 54.6934 54.9816C50.8486 50.5269 51.3434 45.7121 54.0306 41.0522C54.5754 40.1058 55.5194 39.4064 56.5497 39.3725ZM6.42314 10.8116C11.2211 11.4572 15.5579 12.3993 19.8595 13.4213C27.4886 15.2362 34.7287 18.1106 41.3211 22.5121C44.7471 24.7991 48.1233 27.1564 51.0626 30.0487C52.9391 31.8935 54.8799 33.7181 56.3592 35.9367C56.6203 36.3264 57.2638 36.8756 56.2294 37.1953C52.7768 38.2675 51.4421 41.1973 50.243 44.2172C49.3491 46.4669 48.9421 48.9147 49.5254 51.2002C50.243 54.006 51.7699 56.5319 54.3472 58.1169C55.044 58.5468 55.5677 59.1548 56.3718 59.5088C59.7642 61.0042 64.8983 56.4772 64.4088 52.3018C63.9576 48.4387 63.4235 44.617 62.0524 40.9581C61.9857 40.7821 61.8824 40.6264 62.1077 40.3151C64.1133 41.0949 66.0779 42.036 67.9983 43.1052C72.3395 45.524 76.0411 48.7521 79.2285 52.5143C82.0388 55.8297 84.1701 59.6297 84.8119 64.0243C85.1042 66.026 84.8674 68.1066 84.2992 70.084C83.8673 71.5875 83.3232 73.0573 82.8219 74.541C82.7684 74.7021 82.5664 74.8678 82.7761 75.0104C82.9119 75.1018 83.1385 75.1481 83.2948 75.1094C83.6071 75.0278 83.8432 74.8296 84.0578 74.5499C87.2903 70.3372 88.1132 65.6913 86.6173 60.5813C85.0066 55.0674 81.6032 50.7538 77.5304 46.9392C72.7724 42.4862 67.383 39.07 61.0054 37.4559C60.519 37.3344 60.2135 37.1133 59.9448 36.6741C57.0232 31.9327 53.0916 28.1518 48.8531 24.6218C44.7167 21.1781 40.1886 18.3513 35.4638 15.8887C31.5601 13.8566 27.367 12.444 23.1022 11.3029C17.5995 9.83144 11.9924 8.93807 6.37502 8.09444C5.34308 7.93917 5.28362 7.93794 4.33266 7.34883C6.41573 6.87092 8.35276 6.36672 10.3165 5.99638C12.9521 5.49582 15.5124 4.71572 18.0969 4.02797C18.9984 3.78929 19.8988 3.5535 20.8282 3.57527C21.7548 3.5973 22.2916 3.11116 22.6581 2.34629C23.1375 1.35056 22.7376 0.709709 21.611 0.732018C19.3686 0.774204 17.228 1.42752 15.0882 1.99025C11.1521 3.02831 7.19958 3.95239 3.18024 4.5989C2.51431 4.70488 1.8076 4.73126 1.23757 5.21642C0.111496 6.17426 0.151022 6.88467 1.00897 8.06888C2.50382 10.1342 3.83515 12.3211 5.2711 14.4339C6.83068 16.7269 8.40286 19.0076 9.64235 21.5013C9.98305 22.1868 10.6367 22.6974 11.3151 22.4064C12.1047 22.0658 12.2305 21.21 12.0021 20.3577C11.3536 17.9545 9.66507 16.1557 8.4299 14.0932C7.82274 13.0769 7.19463 12.0724 6.4249 10.8156" fill="white"/>
</svg>
