<svg width="84" height="92" viewBox="0 0 84 92" fill="none" xmlns="http://www.w3.org/2000/svg">
<path d="M38.4296 43.0466C41.1141 45.549 43.2344 48.4485 44.6766 51.8289C44.8692 52.2828 44.9796 52.6708 44.5651 53.0911C44.1833 53.4797 43.7928 53.3406 43.4088 53.2148C42.4771 52.9104 41.6008 52.4758 40.7948 51.9192C38.3324 50.22 36.3325 48.1445 35.453 45.1949C35.1892 44.3143 35.8412 41.6123 36.3853 41.5938C37.2687 41.5634 37.6534 42.521 38.3246 42.9542C38.3629 42.978 38.393 43.0168 38.4278 43.0486M24.4447 67.9048C22.0049 65.4529 20.6371 62.8915 18.9917 60.5289C17.7154 58.6961 16.9161 56.6883 16.6191 54.5008C16.4621 53.3434 16.3807 51.7855 17.2125 51.227C18.013 50.6884 19.0667 51.8909 19.8891 52.5444C23.6533 55.5296 26.2008 59.4348 28.2504 63.6915C28.8955 65.029 29.3162 66.4743 29.1616 67.9989C29.0281 69.3117 28.3481 69.7351 27.0672 69.4187C25.8436 69.1156 24.9083 68.4071 24.4457 67.9038M79.4899 4.19688C79.6556 6.78233 78.9908 9.21738 78.5781 11.6762C78.0839 14.6139 77.4321 17.5249 76.867 20.4519C76.7442 21.0906 76.3624 21.8669 77.4672 22.0968C78.8385 22.3841 79.8436 21.9581 80.0159 20.9248C80.6031 17.3994 80.9978 13.8302 81.7738 10.3507C82.3347 7.82624 82.3012 5.20705 83.1403 2.73945C83.5607 1.50463 82.3442 0.389847 80.8439 0.754205C75.42 2.07074 69.9058 1.90691 64.3892 1.79688C63.1272 1.77164 61.9018 1.53399 60.6828 1.26679C59.8991 1.09398 59.0371 0.980036 58.8207 1.88719C58.6083 2.77563 59.4461 3.11903 60.183 3.33283C62.4966 4.00318 64.889 3.87357 67.2495 3.97374C69.3341 4.06378 71.4278 3.95719 73.9435 3.93284C72.8131 4.55732 72.0289 5.00648 71.2315 5.42688C66.4905 7.93092 61.7649 10.4509 57.3824 13.568C51.0354 18.0859 45.5312 23.4382 40.8125 29.6339C39.0407 31.9563 37.3167 34.3002 35.8194 36.8085C35.3113 37.6612 34.7198 37.9345 33.6727 37.5841C30.0649 36.3802 26.4915 36.7507 23.1323 38.3534C20.6517 39.5391 18.9782 41.713 17.3762 43.8927C17.1855 44.1524 17.0303 44.439 16.8406 44.6997C15.5558 46.4651 12.8339 48.3042 10.7041 49.1064C5.90737 50.9147 2.83749 54.4816 1.4024 59.2701C-0.957951 67.1537 -0.447644 74.8997 3.64788 82.2151C5.187 84.9687 7.00171 87.542 9.47496 89.6313C12.1313 91.8731 16.3938 92.6772 19.554 91.2633C19.9317 91.0945 20.4586 90.9205 20.3285 90.4455C20.2091 90.012 19.652 90.0037 19.2334 90.0121C18.5437 90.0297 17.854 90.1479 17.1657 90.1332C13.4763 90.0604 11.0068 87.926 8.84255 85.2119C4.38525 79.6228 2.36364 73.2356 2.69529 66.1853C2.90073 61.8652 4.03388 57.7267 6.95369 54.3709C8.37091 52.7397 9.95803 51.2304 12.1335 50.5259C12.6414 50.3624 13.1224 50.3534 13.6195 50.292C14.2089 50.2199 14.3549 50.4746 14.227 51.0266C13.1608 55.6252 14.8483 59.4798 17.5369 63.0892C18.9522 64.9896 20.1059 67.0775 21.7294 68.8385C24.0585 71.3662 27.0047 72.0096 30.1859 70.7081C31.6438 70.1112 32.1958 68.0333 31.6956 65.7847C30.7887 61.7125 28.5157 58.3789 25.9829 55.1878C24.3491 53.1285 22.5047 51.2828 20.2347 49.9087C19.8776 49.692 19.5152 49.4667 19.129 49.3146C17.857 48.8162 17.6565 48.3627 18.3458 47.1949C19.7156 44.8773 21.2415 42.6802 23.2826 40.8818C26.3189 38.2067 29.9056 38.357 33.235 39.6232C33.8359 39.8523 33.8027 40.1593 33.6047 40.6957C31.8205 45.5561 32.9316 49.0791 37.1788 52.2993C39.0597 53.7236 41.0328 54.9137 43.4455 55.1045C44.4729 55.1853 45.4495 54.9791 46.4152 54.5879C47.6799 54.077 47.8853 53.143 47.5488 52.0096C46.8515 49.6628 45.5909 47.6076 44.0794 45.6955C42.2891 43.4298 40.4497 41.2178 38.002 39.601C37.5492 39.3023 37.5602 38.9601 37.8857 38.4361C41.6377 32.407 46.0083 26.8973 51.0989 21.9234C56.1065 17.0299 61.8438 13.2215 67.9901 9.96063C71.5761 8.05671 75.0299 5.89948 78.8213 4.38841C79.0302 4.30561 79.2537 4.2603 79.4897 4.19299" fill="white"/>
</svg>
